<svg width="1200" height="800" xmlns="http://www.w3.org/2000/svg">
  <defs>
    <!-- Gradients for modern look -->
    <linearGradient id="blueGradient" x1="0%" y1="0%" x2="100%" y2="100%">
      <stop offset="0%" style="stop-color:#3498db;stop-opacity:1" />
      <stop offset="100%" style="stop-color:#2980b9;stop-opacity:1" />
    </linearGradient>
    
    <linearGradient id="greenGradient" x1="0%" y1="0%" x2="100%" y2="100%">
      <stop offset="0%" style="stop-color:#27ae60;stop-opacity:1" />
      <stop offset="100%" style="stop-color:#229954;stop-opacity:1" />
    </linearGradient>
    
    <linearGradient id="orangeGradient" x1="0%" y1="0%" x2="100%" y2="100%">
      <stop offset="0%" style="stop-color:#f39c12;stop-opacity:1" />
      <stop offset="100%" style="stop-color:#e67e22;stop-opacity:1" />
    </linearGradient>
    
    <linearGradient id="redGradient" x1="0%" y1="0%" x2="100%" y2="100%">
      <stop offset="0%" style="stop-color:#e74c3c;stop-opacity:1" />
      <stop offset="100%" style="stop-color:#c0392b;stop-opacity:1" />
    </linearGradient>
    
    <!-- Arrow marker -->
    <marker id="arrowhead" markerWidth="8" markerHeight="6" 
            refX="8" refY="3" orient="auto">
      <polygon points="0 0, 8 3, 0 6" fill="#2c3e50" />
    </marker>
    
    <!-- Enhanced arrow marker with gradient -->
    <marker id="gradientArrow" markerWidth="9" markerHeight="7" 
            refX="9" refY="3.5" orient="auto">
      <polygon points="0 0, 9 3.5, 0 7" fill="url(#arrowGradient)" stroke="#2c3e50" stroke-width="0.3"/>
    </marker>
    
    <!-- Arrow gradient -->
    <linearGradient id="arrowGradient" x1="0%" y1="0%" x2="100%" y2="0%">
      <stop offset="0%" style="stop-color:#3498db;stop-opacity:1" />
      <stop offset="100%" style="stop-color:#2c3e50;stop-opacity:1" />
    </linearGradient>
  </defs>
  
  <!-- Background -->
  <rect width="1200" height="800" fill="#f8f9fa"/>
  
  <!-- Title -->
  <text x="600" y="30" text-anchor="middle" font-family="Arial, sans-serif" 
        font-size="24" font-weight="bold" fill="#2c3e50">
    Safety Compliance Detection System - Method Diagram
  </text>
  
  <!-- Stage 1: User Authentication & Input -->
  <g id="stage1">
    <!-- User Icon -->
    <circle cx="80" cy="120" r="25" fill="url(#blueGradient)" stroke="#2980b9" stroke-width="2"/>
    <circle cx="80" cy="110" r="8" fill="white"/>
    <path d="M 65 130 Q 80 125 95 130" stroke="white" stroke-width="3" fill="none"/>
    
    <!-- Authentication Box -->
    <rect x="40" y="160" width="80" height="60" rx="8" fill="url(#blueGradient)" 
          stroke="#2980b9" stroke-width="2"/>
    <text x="80" y="185" text-anchor="middle" font-family="Arial" font-size="10" fill="white" font-weight="bold">User Login</text>
    <text x="80" y="200" text-anchor="middle" font-family="Arial" font-size="8" fill="white">Authentication</text>
    <text x="80" y="210" text-anchor="middle" font-family="Arial" font-size="8" fill="white">&amp; Session</text>
    
    <!-- Input Selection -->
    <rect x="180" y="80" width="100" height="70" rx="8" fill="#ecf0f1" 
          stroke="#bdc3c7" stroke-width="2"/>
    <text x="230" y="100" text-anchor="middle" font-family="Arial" font-size="12" fill="#2c3e50" font-weight="bold">Input Selection</text>
    
    <!-- Webcam Option -->
    <rect x="190" y="110" width="35" height="25" rx="4" fill="url(#greenGradient)"/>
    <circle cx="207" cy="122" r="6" fill="white"/>
    <circle cx="207" cy="122" r="3" fill="url(#greenGradient)"/>
    <text x="207" y="142" text-anchor="middle" font-family="Arial" font-size="7" fill="#27ae60">Webcam</text>
    
    <!-- Upload Option -->
    <rect x="235" y="110" width="35" height="25" rx="4" fill="url(#orangeGradient)"/>
    <rect x="240" y="115" width="25" height="15" rx="2" fill="white"/>
    <path d="M 247 120 L 252 125 L 257 120" stroke="url(#orangeGradient)" stroke-width="2" fill="none"/>
    <text x="252" y="142" text-anchor="middle" font-family="Arial" font-size="7" fill="#f39c12">Upload</text>
  </g>
  
  <!-- Arrow 1 - Seamlessly connected from Authentication box to Input Selection -->
  <line x1="120" y1="190" x2="180" y2="125" stroke="#2c3e50" stroke-width="1.3" marker-end="url(#gradientArrow)" opacity="0.7"/>
  
  <!-- Stage 2: Video Processing (IMPROVED ALIGNMENT) -->
  <g id="stage2">
    <!-- Video Processing Box -->
    <rect x="320" y="80" width="120" height="80" rx="10" fill="url(#orangeGradient)" 
          stroke="#e67e22" stroke-width="3"/>
    <text x="380" y="100" text-anchor="middle" font-family="Arial" font-size="12" fill="white" font-weight="bold">Video Processing</text>
    
    <!-- Frame extraction icon - CENTERED -->
    <g transform="translate(340, 110)">
      <rect x="0" y="0" width="18" height="12" rx="2" fill="white" opacity="0.9"/>
      <rect x="2" y="2" width="14" height="8" fill="url(#orangeGradient)"/>
      <rect x="4" y="4" width="3" height="2" fill="white"/>
      <rect x="8" y="4" width="3" height="2" fill="white"/>
      <rect x="12" y="4" width="3" height="2" fill="white"/>
    </g>
    <text x="349" y="135" text-anchor="middle" font-family="Arial" font-size="7" fill="white">Frame</text>
    <text x="349" y="145" text-anchor="middle" font-family="Arial" font-size="7" fill="white">Extraction</text>
    
    <!-- Preprocessing icon - CENTERED -->
    <g transform="translate(390, 110)">
      <circle cx="9" cy="9" r="8" fill="white" opacity="0.9"/>
      <path d="M 4 9 L 9 4 L 14 9 L 9 14 Z" fill="url(#orangeGradient)"/>
      <circle cx="9" cy="9" r="3" fill="white"/>
    </g>
    <text x="399" y="135" text-anchor="middle" font-family="Arial" font-size="7" fill="white">Pre-</text>
    <text x="399" y="145" text-anchor="middle" font-family="Arial" font-size="7" fill="white">processing</text>
  </g>
  
  <!-- Arrow 2 - Seamlessly connected from Input Selection to Video Processing -->
  <line x1="280" y1="115" x2="320" y2="115" stroke="#2c3e50" stroke-width="1.3" marker-end="url(#gradientArrow)" opacity="0.7"/>
  
  <!-- Stage 3: YOLOv8l Detection Engine (IMPROVED LAYOUT) -->
  <g id="stage3">
    <!-- YOLOv8 Detection Engine -->
    <rect x="480" y="60" width="160" height="124" rx="12" fill="url(#greenGradient)" 
          stroke="#27ae60" stroke-width="3"/>
    <text x="560" y="80" text-anchor="middle" font-family="Arial" font-size="13" fill="white" font-weight="bold">YOLOv8l Detection</text>
    <text x="560" y="95" text-anchor="middle" font-family="Arial" font-size="13" fill="white" font-weight="bold">Engine</text>
    
    <!-- Neural Network Icon - CENTERED AND LARGER -->
    <g transform="translate(515, 105)">
      <circle cx="12" cy="10" r="4" fill="white"/>
      <circle cx="35" cy="6" r="4" fill="white"/>
      <circle cx="35" cy="14" r="4" fill="white"/>
      <circle cx="58" cy="10" r="4" fill="white"/>
      <line x1="16" y1="10" x2="31" y2="7" stroke="white" stroke-width="1"/>
      <line x1="16" y1="10" x2="31" y2="13" stroke="white" stroke-width="1"/>
      <line x1="39" y1="7" x2="54" y2="10" stroke="white" stroke-width="1"/>
      <line x1="39" y1="13" x2="54" y2="10" stroke="white" stroke-width="1"/>
      <text x="35" y="27" text-anchor="middle" font-family="Arial" font-size="7" fill="white">Neural Network</text>
    </g>
    
    <!-- PPE Detection Classes - LARGER ICONS WITH PROPER SPACING -->
    <g transform="translate(500, 135)">
      <!-- Helmet -->
      <g transform="translate(0, 0)">
        <circle cx="15" cy="12" r="8" fill="white" opacity="0.9"/>
        <path d="M 10 9 Q 15 5 20 9 Q 20 15 15 17 Q 10 15 10 9" fill="#f1c40f"/>
        <text x="15" y="27" text-anchor="middle" font-family="Arial" font-size="7" fill="white">Helmet</text>
      </g>
      
      <!-- Vest -->
      <g transform="translate(40, 0)">
        <circle cx="15" cy="12" r="11" fill="white" opacity="0.9"/>
        <rect x="5" y="5" width="20" height="14" rx="3" fill="#e67e22"/>
        <path d="M 8 5 L 8 9 M 13 5 L 13 9 M 18 5 L 18 9 M 22 5 L 22 9" stroke="white" stroke-width="1.5"/>
        <text x="15" y="30" text-anchor="middle" font-family="Arial" font-size="7" fill="white">Vest</text>
      </g>
      
      <!-- Mask -->
      <g transform="translate(80, 0)">
        <ellipse cx="15" cy="12" rx="12" ry="8" fill="white" opacity="0.9"/>
        <path d="M 6 10 Q 15 8 24 10 Q 24 14 15 16 Q 6 14 6 10" fill="#3498db"/>
        <circle cx="11" cy="11" r="1.5" fill="white"/>
        <circle cx="19" cy="11" r="1.5" fill="white"/>
        <path d="M 12 13 Q 15 14 18 13" stroke="white" stroke-width="1" fill="none"/>
        <text x="15" y="30" text-anchor="middle" font-family="Arial" font-size="7" fill="white">Mask</text>
      </g>
    </g>
    
    <!-- Performance Metrics with more space -->
    <text x="560" y="177" text-anchor="middle" font-family="Arial" font-size="7" fill="white">mAP@0.5: 96.6% | FPS: 21.5</text>
  </g>
  
  <!-- Arrow 3 - Seamlessly connected from Video Processing to YOLOv8 -->
  <line x1="440" y1="120" x2="480" y2="120" stroke="#2c3e50" stroke-width="1.3" marker-end="url(#gradientArrow)" opacity="0.7"/>
  
  <!-- Stage 4: Object Tracking (IMPROVED ICONS & CONTENT) -->
  <g id="stage4">
    <!-- Tracking Box -->
    <rect x="680" y="80" width="140" height="90" rx="10" fill="url(#blueGradient)" 
          stroke="#2980b9" stroke-width="3"/>
    <text x="750" y="100" text-anchor="middle" font-family="Arial" font-size="12" fill="white" font-weight="bold">Object Tracking</text>
    
    <!-- EuclideanDistTracker -->
    <text x="750" y="115" text-anchor="middle" font-family="Arial" font-size="9" fill="white">EuclideanDistTracker</text>
    
    <!-- Tracking visualization - CENTERED WITH IDs ABOVE -->
    <g transform="translate(710, 120)">
      <!-- ID Labels above the icons -->
      <text x="8" y="8" text-anchor="middle" font-family="Arial" font-size="6" fill="white" font-weight="bold">ID: 1</text>
      <text x="28" y="8" text-anchor="middle" font-family="Arial" font-size="6" fill="white" font-weight="bold">ID: 2</text>
      <text x="48" y="8" text-anchor="middle" font-family="Arial" font-size="6" fill="white" font-weight="bold">ID: 3</text>
      
      <!-- Person 1 with proper bounding box -->
      <rect x="2" y="12" width="12" height="16" fill="none" stroke="white" stroke-width="1.5"/>
      <circle cx="8" cy="17" r="1.5" fill="#cac72cff"/>
      <rect x="6" y="19" width="4" height="6" fill="none" stroke="white" stroke-width="1"/>
      
      <!-- Person 2 with proper bounding box -->
      <rect x="22" y="12" width="12" height="16" fill="none" stroke="white" stroke-width="1.5"/>
      <circle cx="28" cy="17" r="1.5" fill="#e74c3c"/>
      <rect x="26" y="19" width="4" height="6" fill="none" stroke="white" stroke-width="1"/>
      
      <!-- Person 3 with proper bounding box -->
      <rect x="42" y="12" width="12" height="16" fill="none" stroke="white" stroke-width="1.5"/>
      <circle cx="48" cy="17" r="1.5" fill="#f39c12"/>
      <rect x="46" y="19" width="4" height="6" fill="none" stroke="white" stroke-width="1"/>
    </g>
    
    <!-- Distance threshold info - BETTER POSITIONED WITH MORE SPACE -->
    <text x="750" y="162" text-anchor="middle" font-family="Arial" font-size="7" fill="white">Distance: 100px threshold</text>
  </g>
  
  <!-- Arrow 4 - Seamlessly connected from YOLOv8 to Object Tracking -->
  <line x1="640" y1="122" x2="680" y2="122" stroke="#2c3e50" stroke-width="1.3" marker-end="url(#gradientArrow)" opacity="0.7"/>
  
  <!-- Stage 5: Compliance Analysis (IMPROVED CONTENT & ICONS) -->
  <g id="stage5">
    <!-- Compliance Analysis Box -->
    <rect x="860" y="60" width="140" height="110" rx="10" fill="url(#redGradient)" 
          stroke="#c0392b" stroke-width="3"/>
    <text x="930" y="80" text-anchor="middle" font-family="Arial" font-size="12" fill="white" font-weight="bold">Compliance Analysis</text>
    
    <!-- Safety Rules -->
    <text x="930" y="95" text-anchor="middle" font-family="Arial" font-size="9" fill="white">Safety Rules Engine</text>
    
    <!-- Compliance Status Icons - CENTERED WITH BETTER SPACING -->
    <g transform="translate(890, 105)">
      <!-- Safe Status -->
      <g transform="translate(0, 0)">
        <circle cx="15" cy="12" r="10" fill="#27ae60" stroke="white" stroke-width="1"/>
        <path d="M 10 12 L 13 15 L 20 8" stroke="white" stroke-width="2" fill="none"/>
        <text x="15" y="30" text-anchor="middle" font-family="Arial" font-size="6" fill="white" font-weight="bold">SAFE</text>
      </g>
      
      <!-- Unsafe Status -->
      <g transform="translate(50, 0)">
        <circle cx="15" cy="12" r="10" fill="#e74c3c" stroke="white" stroke-width="1"/>
        <line x1="10" y1="7" x2="20" y2="17" stroke="white" stroke-width="2"/>
        <line x1="10" y1="17" x2="20" y2="7" stroke="white" stroke-width="2"/>
        <text x="15" y="30" text-anchor="middle" font-family="Arial" font-size="6" fill="white" font-weight="bold">UNSAFE</text>
      </g>
    </g>
    
    <!-- Compliance Rules with better spacing -->
    <text x="930" y="150" text-anchor="middle" font-family="Arial" font-size="7" fill="white">Rules: Helmet + Vest + Mask</text>
    
    <!-- Real-time Counts with better spacing -->
    <text x="930" y="162" text-anchor="middle" font-family="Arial" font-size="7" fill="white">Live Count: Safe | Unsafe</text>
  </g>
  
  <!-- Arrow 5 - Seamlessly connected from Object Tracking to Compliance Analysis -->
  <line x1="820" y1="125" x2="860" y2="125" stroke="#2c3e50" stroke-width="1.3" marker-end="url(#gradientArrow)" opacity="0.7"/>
  
  <!-- Stage 6: Output & Storage (IMPROVED DATABASE CONTENT) -->
  <g id="stage6">
    <!-- Visual Output -->
    <rect x="200" y="280" width="200" height="100" rx="10" fill="#ecf0f1" 
          stroke="#bdc3c7" stroke-width="3"/>
    <text x="300" y="305" text-anchor="middle" font-family="Arial" font-size="12" fill="#2c3e50" font-weight="bold">Visual Output</text>
    
    <!-- Live Stream Display -->
    <rect x="220" y="315" width="60" height="40" rx="4" fill="#34495e"/>
    <text x="250" y="335" text-anchor="middle" font-family="Arial" font-size="8" fill="white">Live Stream</text>
    <text x="250" y="345" text-anchor="middle" font-family="Arial" font-size="7" fill="white">with Overlays</text>
    
    <!-- Processed Video -->
    <rect x="300" y="315" width="60" height="40" rx="4" fill="#3498db"/>
    <text x="330" y="335" text-anchor="middle" font-family="Arial" font-size="8" fill="white">Processed</text>
    <text x="330" y="345" text-anchor="middle" font-family="Arial" font-size="7" fill="white">Video Output</text>
    
    <!-- Database Storage (IMPROVED DESIGN) -->
    <rect x="480" y="280" width="180" height="100" rx="10" fill="url(#blueGradient)" 
          stroke="#2980b9" stroke-width="3"/>
    <text x="570" y="300" text-anchor="middle" font-family="Arial" font-size="12" fill="white" font-weight="bold">PostgreSQL Database</text>
    
    <!-- Database Icon - LEFT SIDE (SMALLER) -->
    <g transform="translate(500, 315)">
      <ellipse cx="12" cy="5" rx="10" ry="3" fill="white"/>
      <rect x="2" y="2" width="20" height="10" fill="white"/>
      <ellipse cx="12" cy="12" rx="10" ry="3" fill="white"/>
      <ellipse cx="12" cy="18" rx="10" ry="3" fill="white"/>
      <!-- Database lines -->
      <line x1="5" y1="6" x2="19" y2="6" stroke="url(#blueGradient)" stroke-width="1"/>
      <line x1="5" y1="9" x2="19" y2="9" stroke="url(#blueGradient)" stroke-width="1"/>
      <line x1="5" y1="15" x2="19" y2="15" stroke="url(#blueGradient)" stroke-width="1"/>
      
      <!-- Storage Details - BESIDE THE ICON -->
      <text x="30" y="8" font-family="Arial" font-size="8" fill="white">• User Sessions &amp; Auth</text>
      <text x="30" y="19" font-family="Arial" font-size="8" fill="white">• Detection Results</text>
      <text x="30" y="31" font-family="Arial" font-size="8" fill="white">• Activity Logs &amp; Audit</text>
    </g>
    
    <!-- Admin Dashboard -->
    <rect x="680" y="280" width="140" height="100" rx="10" fill="url(#orangeGradient)" 
          stroke="#e67e22" stroke-width="3"/>
    <text x="750" y="305" text-anchor="middle" font-family="Arial" font-size="12" fill="white" font-weight="bold">Admin Dashboard</text>
    
    <!-- Dashboard Features -->
    <text x="750" y="325" text-anchor="middle" font-family="Arial" font-size="9" fill="white">• User Management</text>
    <text x="750" y="337" text-anchor="middle" font-family="Arial" font-size="9" fill="white">• System Statistics</text>
    <text x="750" y="349" text-anchor="middle" font-family="Arial" font-size="9" fill="white">• Audit Reports</text>
  </g>
  
  <!-- Output Arrows - Enhanced with proper connections and adjusted arrowheads -->
  <path d="M 930 170 L 340 280" stroke="#2c3e50" stroke-width="1.3" fill="none" marker-end="url(#gradientArrow)" opacity="0.7"/>
  <path d="M 930 170 L 590 280" stroke="#2c3e50" stroke-width="1.3" fill="none" marker-end="url(#gradientArrow)" opacity="0.7"/>
  <path d="M 930 170 L 750 280" stroke="#2c3e50" stroke-width="1.3" fill="none" marker-end="url(#gradientArrow)" opacity="0.7"/>
  
  <!-- Key Features Box -->
  <rect x="50" y="450" width="1100" height="300" rx="15" fill="#f8f9fa" 
        stroke="#34495e" stroke-width="2"/>
  
  <!-- Key Features Title -->
  <text x="600" y="480" text-anchor="middle" font-family="Arial" font-size="18" fill="#2c3e50" font-weight="bold">
    Key System Features &amp; Specifications
  </text>
  
  <!-- Features in columns -->
  <g id="features">
    <!-- Column 1: Detection Performance -->
    <rect x="80" y="500" width="220" height="120" rx="8" fill="url(#greenGradient)" opacity="0.1" stroke="#27ae60"/>
    <text x="190" y="525" text-anchor="middle" font-family="Arial" font-size="12" fill="#27ae60" font-weight="bold">Detection Performance</text>
    <text x="90" y="545" font-family="Arial" font-size="10" fill="#2c3e50">• Overall mAP@0.5: 96.6%</text>
    <text x="90" y="560" font-family="Arial" font-size="10" fill="#2c3e50">• Helmet: 98.4% mAP@0.5</text>
    <text x="90" y="575" font-family="Arial" font-size="10" fill="#2c3e50">• Vest: 94.1% mAP@0.5</text>
    <text x="90" y="590" font-family="Arial" font-size="10" fill="#2c3e50">• Mask: 97.4% mAP@0.5</text>
    <text x="90" y="605" font-family="Arial" font-size="10" fill="#2c3e50">• Real-time: 21.5 FPS (GPU)</text>
    
    <!-- Column 2: System Architecture -->
    <rect x="320" y="500" width="220" height="120" rx="8" fill="url(#blueGradient)" opacity="0.1" stroke="#3498db"/>
    <text x="430" y="525" text-anchor="middle" font-family="Arial" font-size="12" fill="#3498db" font-weight="bold">System Architecture</text>
    <text x="330" y="545" font-family="Arial" font-size="10" fill="#2c3e50">• Flask Web Application</text>
    <text x="330" y="560" font-family="Arial" font-size="10" fill="#2c3e50">• PostgreSQL Database</text>
    <text x="330" y="575" font-family="Arial" font-size="10" fill="#2c3e50">• YOLOv8l + OpenCV</text>
    <text x="330" y="590" font-family="Arial" font-size="10" fill="#2c3e50">• CUDA Acceleration</text>
    <text x="330" y="605" font-family="Arial" font-size="10" fill="#2c3e50">• Multi-user Support</text>
    
    <!-- Column 3: Security & Management -->
    <rect x="560" y="500" width="220" height="120" rx="8" fill="url(#orangeGradient)" opacity="0.1" stroke="#f39c12"/>
    <text x="670" y="525" text-anchor="middle" font-family="Arial" font-size="12" fill="#f39c12" font-weight="bold">Security &amp; Management</text>
    <text x="570" y="545" font-family="Arial" font-size="10" fill="#2c3e50">• bcrypt Authentication</text>
    <text x="570" y="560" font-family="Arial" font-size="10" fill="#2c3e50">• Role-based Access</text>
    <text x="570" y="575" font-family="Arial" font-size="10" fill="#2c3e50">• Admin Approval Workflow</text>
    <text x="570" y="590" font-family="Arial" font-size="10" fill="#2c3e50">• Activity Logging</text>
    <text x="570" y="605" font-family="Arial" font-size="10" fill="#2c3e50">• Session Management</text>
    
    <!-- Column 4: Input/Output Capabilities -->
    <rect x="800" y="500" width="220" height="120" rx="8" fill="url(#redGradient)" opacity="0.1" stroke="#e74c3c"/>
    <text x="910" y="525" text-anchor="middle" font-family="Arial" font-size="12" fill="#e74c3c" font-weight="bold">Input/Output Features</text>
    <text x="810" y="545" font-family="Arial" font-size="10" fill="#2c3e50">• Webcam Live Stream</text>
    <text x="810" y="560" font-family="Arial" font-size="10" fill="#2c3e50">• Video File Upload (MP4)</text>
    <text x="810" y="575" font-family="Arial" font-size="10" fill="#2c3e50">• Processed Video Export</text>
    <text x="810" y="590" font-family="Arial" font-size="10" fill="#2c3e50">• Real-time Statistics</text>
    <text x="810" y="605" font-family="Arial" font-size="10" fill="#2c3e50">• Visual Compliance Alerts</text>
  </g>
  
  <!-- Technology Stack -->
  <rect x="80" y="650" width="940" height="80" rx="8" fill="#34495e" opacity="0.1" stroke="#34495e"/>
  <text x="550" y="675" text-anchor="middle" font-family="Arial" font-size="12" fill="#34495e" font-weight="bold">Technology Stack</text>
  
  <!-- Tech icons and labels -->
  <g transform="translate(100, 685)">
    <!-- Python/Flask -->
    <circle cx="40" cy="15" r="12" fill="#3776ab"/>
    <text x="40" y="20" text-anchor="middle" font-family="Arial" font-size="8" fill="white" font-weight="bold">Py</text>
    <text x="40" y="35" text-anchor="middle" font-family="Arial" font-size="8" fill="#2c3e50">Python/Flask</text>
    
    <!-- YOLOv8 -->
    <rect x="130" y="3" width="24" height="24" rx="4" fill="#00D4AA"/>
    <text x="142" y="18" text-anchor="middle" font-family="Arial" font-size="7" fill="white" font-weight="bold">YOLO</text>
    <text x="142" y="35" text-anchor="middle" font-family="Arial" font-size="8" fill="#2c3e50">YOLOv8l</text>
    
    <!-- PostgreSQL -->
    <circle cx="220" cy="15" r="12" fill="#336791"/>
    <text x="220" y="20" text-anchor="middle" font-family="Arial" font-size="8" fill="white" font-weight="bold">PG</text>
    <text x="220" y="35" text-anchor="middle" font-family="Arial" font-size="8" fill="#2c3e50">PostgreSQL</text>
    
    <!-- OpenCV -->
    <rect x="298" y="3" width="24" height="24" rx="4" fill="#5C85D6"/>
    <text x="310" y="18" text-anchor="middle" font-family="Arial" font-size="7" fill="white" font-weight="bold">CV</text>
    <text x="310" y="35" text-anchor="middle" font-family="Arial" font-size="8" fill="#2c3e50">OpenCV</text>
    
    <!-- Bootstrap -->
    <circle cx="390" cy="15" r="12" fill="#7952B3"/>
    <text x="390" y="20" text-anchor="middle" font-family="Arial" font-size="8" fill="white" font-weight="bold">BS</text>
    <text x="390" y="35" text-anchor="middle" font-family="Arial" font-size="8" fill="#2c3e50">Bootstrap</text>
    
    <!-- jQuery -->
    <rect x="468" y="3" width="24" height="24" rx="4" fill="#0769AD"/>
    <text x="480" y="18" text-anchor="middle" font-family="Arial" font-size="7" fill="white" font-weight="bold">jQ</text>
    <text x="480" y="35" text-anchor="middle" font-family="Arial" font-size="8" fill="#2c3e50">jQuery</text>
    
    <!-- CUDA -->
    <circle cx="560" cy="15" r="12" fill="#76B900"/>
    <text x="560" y="20" text-anchor="middle" font-family="Arial" font-size="7" fill="white" font-weight="bold">GPU</text>
    <text x="560" y="35" text-anchor="middle" font-family="Arial" font-size="8" fill="#2c3e50">CUDA</text>
    
    <!-- HTML5 -->
    <rect x="638" y="3" width="24" height="24" rx="4" fill="#E34F26"/>
    <text x="650" y="18" text-anchor="middle" font-family="Arial" font-size="7" fill="white" font-weight="bold">H5</text>
    <text x="650" y="35" text-anchor="middle" font-family="Arial" font-size="8" fill="#2c3e50">HTML5</text>
    
    <!-- REST API -->
    <circle cx="730" cy="15" r="12" fill="#FF6B6B"/>
    <text x="730" y="20" text-anchor="middle" font-family="Arial" font-size="6" fill="white" font-weight="bold">API</text>
    <text x="730" y="35" text-anchor="middle" font-family="Arial" font-size="8" fill="#2c3e50">REST API</text>
  </g>
  
  <!-- Footer -->
  <text x="600" y="780" text-anchor="middle" font-family="Arial" font-size="10" fill="#7f8c8d">
    Safety Compliance Detection System | Focus: Helmet, Vest, Mask Detection | Enterprise-Ready Solution
  </text>
</svg>
