<svg width="426" height="1280" xmlns="http://www.w3.org/2000/svg">
  <defs>
    <!-- Gradients for modern look -->
    <linearGradient id="blueGradient" x1="0%" y1="0%" x2="100%" y2="100%">
      <stop offset="0%" style="stop-color:#3498db;stop-opacity:1" />
      <stop offset="100%" style="stop-color:#2980b9;stop-opacity:1" />
    </linearGradient>
    
    <linearGradient id="greenGradient" x1="0%" y1="0%" x2="100%" y2="100%">
      <stop offset="0%" style="stop-color:#27ae60;stop-opacity:1" />
      <stop offset="100%" style="stop-color:#229954;stop-opacity:1" />
    </linearGradient>
    
    <linearGradient id="orangeGradient" x1="0%" y1="0%" x2="100%" y2="100%">
      <stop offset="0%" style="stop-color:#f39c12;stop-opacity:1" />
      <stop offset="100%" style="stop-color:#e67e22;stop-opacity:1" />
    </linearGradient>
    
    <linearGradient id="redGradient" x1="0%" y1="0%" x2="100%" y2="100%">
      <stop offset="0%" style="stop-color:#e74c3c;stop-opacity:1" />
      <stop offset="100%" style="stop-color:#c0392b;stop-opacity:1" />
    </linearGradient>
    
    <linearGradient id="titleGradient" x1="0%" y1="0%" x2="100%" y2="100%">
      <stop offset="0%" style="stop-color:#2c3e50;stop-opacity:1" />
      <stop offset="100%" style="stop-color:#34495e;stop-opacity:1" />
    </linearGradient>
    
    <!-- Arrow marker -->
    <marker id="arrowhead" markerWidth="4" markerHeight="3" 
            refX="4" refY="1.5" orient="auto">
      <polygon points="0 0, 4 1.5, 0 3" fill="#2c3e50" />
    </marker>
    
    <!-- Enhanced arrow marker with gradient -->
    <marker id="gradientArrow" markerWidth="5" markerHeight="4" 
            refX="5" refY="2" orient="auto">
      <polygon points="0 0, 5 2, 0 4" fill="url(#arrowGradient)" stroke="#2c3e50" stroke-width="0.2"/>
    </marker>
    
    <!-- Arrow gradient -->
    <linearGradient id="arrowGradient" x1="0%" y1="0%" x2="100%" y2="0%">
      <stop offset="0%" style="stop-color:#3498db;stop-opacity:1" />
      <stop offset="100%" style="stop-color:#2c3e50;stop-opacity:1" />
    </linearGradient>
  </defs>
  
  <!-- Background -->
  <rect width="426" height="1280" fill="#f8f9fa"/>
  
  <!-- FIRST PART: PROJECT TITLE -->
  <rect x="0" y="0" width="426" height="120" fill="url(#titleGradient)"/>
  <text x="213" y="40" text-anchor="middle" font-family="Arial, sans-serif" 
        font-size="18" font-weight="bold" fill="white">
    Safety Compliance Detection System
  </text>
  <text x="213" y="65" text-anchor="middle" font-family="Arial, sans-serif" 
        font-size="12" fill="#ecf0f1">
    Real-time PPE Detection using YOLOv8l
  </text>
  <text x="213" y="85" text-anchor="middle" font-family="Arial, sans-serif" 
        font-size="10" fill="#bdc3c7">
    Helmet • Safety Vest • Face Mask Detection
  </text>
  
  <!-- SECOND PART: METHOD DIAGRAM (WHITE BACKGROUND) -->
  <rect x="10" y="130" width="406" height="400" fill="white" stroke="#bdc3c7" stroke-width="1" rx="8"/>
  
  <!-- Method Diagram Title -->
  <text x="213" y="155" text-anchor="middle" font-family="Arial, sans-serif" 
        font-size="14" font-weight="bold" fill="#2c3e50">
    System Architecture
  </text>
  
  <!-- ACTUAL METHOD DIAGRAM FROM method_diagram4.svg - PROPERLY SCALED -->
  <g transform="translate(15, 165) scale(0.35)">
    <!-- Stage 1: User Authentication & Input -->
    <g id="stage1">
      <!-- User Icon -->
      <circle cx="80" cy="120" r="25" fill="url(#blueGradient)" stroke="#2980b9" stroke-width="2"/>
      <circle cx="80" cy="110" r="8" fill="white"/>
      <path d="M 65 130 Q 80 125 95 130" stroke="white" stroke-width="3" fill="none"/>
      
      <!-- Authentication Box -->
      <rect x="40" y="160" width="80" height="60" rx="8" fill="url(#blueGradient)" 
            stroke="#2980b9" stroke-width="2"/>
      <text x="80" y="185" text-anchor="middle" font-family="Arial" font-size="10" fill="white" font-weight="bold">User Login</text>
      <text x="80" y="200" text-anchor="middle" font-family="Arial" font-size="8" fill="white">Authentication</text>
      <text x="80" y="210" text-anchor="middle" font-family="Arial" font-size="8" fill="white">&amp; Session</text>
      
      <!-- Input Selection -->
      <rect x="180" y="80" width="100" height="70" rx="8" fill="#ecf0f1" 
            stroke="#bdc3c7" stroke-width="2"/>
      <text x="230" y="100" text-anchor="middle" font-family="Arial" font-size="12" fill="#2c3e50" font-weight="bold">Input Selection</text>
      
      <!-- Webcam Option -->
      <rect x="190" y="110" width="35" height="25" rx="4" fill="url(#greenGradient)"/>
      <circle cx="207" cy="122" r="6" fill="white"/>
      <circle cx="207" cy="122" r="3" fill="url(#greenGradient)"/>
      <text x="207" y="142" text-anchor="middle" font-family="Arial" font-size="7" fill="#27ae60">Webcam</text>
      
      <!-- Upload Option -->
      <rect x="235" y="110" width="35" height="25" rx="4" fill="url(#orangeGradient)"/>
      <rect x="240" y="115" width="25" height="15" rx="2" fill="white"/>
      <path d="M 247 120 L 252 125 L 257 120" stroke="url(#orangeGradient)" stroke-width="2" fill="none"/>
      <text x="252" y="142" text-anchor="middle" font-family="Arial" font-size="7" fill="#f39c12">Upload</text>
    </g>
    
    <!-- Arrow 1 -->
    <line x1="120" y1="190" x2="180" y2="125" stroke="#2c3e50" stroke-width="1.3" marker-end="url(#gradientArrow)" opacity="0.7"/>
    
    <!-- Stage 2: Video Processing -->
    <g id="stage2">
      <rect x="320" y="80" width="120" height="80" rx="10" fill="url(#orangeGradient)" 
            stroke="#e67e22" stroke-width="3"/>
      <text x="380" y="100" text-anchor="middle" font-family="Arial" font-size="12" fill="white" font-weight="bold">Video Processing</text>
      
      <!-- Frame extraction icon -->
      <g transform="translate(340, 110)">
        <rect x="0" y="0" width="18" height="12" rx="2" fill="white" opacity="0.9"/>
        <rect x="2" y="2" width="14" height="8" fill="url(#orangeGradient)"/>
        <rect x="4" y="4" width="3" height="2" fill="white"/>
        <rect x="8" y="4" width="3" height="2" fill="white"/>
        <rect x="12" y="4" width="3" height="2" fill="white"/>
      </g>
      <text x="349" y="135" text-anchor="middle" font-family="Arial" font-size="7" fill="white">Frame</text>
      <text x="349" y="145" text-anchor="middle" font-family="Arial" font-size="7" fill="white">Extraction</text>
      
      <!-- Preprocessing icon -->
      <g transform="translate(390, 110)">
        <circle cx="9" cy="9" r="8" fill="white" opacity="0.9"/>
        <path d="M 4 9 L 9 4 L 14 9 L 9 14 Z" fill="url(#orangeGradient)"/>
        <circle cx="9" cy="9" r="3" fill="white"/>
      </g>
      <text x="399" y="135" text-anchor="middle" font-family="Arial" font-size="7" fill="white">Pre-</text>
      <text x="399" y="145" text-anchor="middle" font-family="Arial" font-size="7" fill="white">processing</text>
    </g>
    
    <!-- Arrow 2 -->
    <line x1="280" y1="115" x2="320" y2="115" stroke="#2c3e50" stroke-width="1.3" marker-end="url(#gradientArrow)" opacity="0.7"/>
    
    <!-- Stage 3: YOLOv8l Detection Engine -->
    <g id="stage3">
      <rect x="480" y="60" width="160" height="124" rx="12" fill="url(#greenGradient)" 
            stroke="#27ae60" stroke-width="3"/>
      <text x="560" y="80" text-anchor="middle" font-family="Arial" font-size="13" fill="white" font-weight="bold">YOLOv8l Detection</text>
      <text x="560" y="95" text-anchor="middle" font-family="Arial" font-size="13" fill="white" font-weight="bold">Engine</text>
      
      <!-- Neural Network Icon -->
      <g transform="translate(515, 105)">
        <circle cx="12" cy="10" r="4" fill="white"/>
        <circle cx="35" cy="6" r="4" fill="white"/>
        <circle cx="35" cy="14" r="4" fill="white"/>
        <circle cx="58" cy="10" r="4" fill="white"/>
        <line x1="16" y1="10" x2="31" y2="7" stroke="white" stroke-width="1"/>
        <line x1="16" y1="10" x2="31" y2="13" stroke="white" stroke-width="1"/>
        <line x1="39" y1="7" x2="54" y2="10" stroke="white" stroke-width="1"/>
        <line x1="39" y1="13" x2="54" y2="10" stroke="white" stroke-width="1"/>
        <text x="35" y="27" text-anchor="middle" font-family="Arial" font-size="7" fill="white">Neural Network</text>
      </g>
      
      <!-- PPE Detection Classes -->
      <g transform="translate(500, 135)">
        <!-- Helmet -->
        <g transform="translate(0, 0)">
          <circle cx="15" cy="12" r="8" fill="white" opacity="0.9"/>
          <path d="M 10 9 Q 15 5 20 9 Q 20 15 15 17 Q 10 15 10 9" fill="#f1c40f"/>
          <text x="15" y="27" text-anchor="middle" font-family="Arial" font-size="7" fill="white">Helmet</text>
        </g>
        
        <!-- Vest -->
        <g transform="translate(40, 0)">
          <circle cx="15" cy="12" r="11" fill="white" opacity="0.9"/>
          <rect x="5" y="5" width="20" height="14" rx="3" fill="#e67e22"/>
          <path d="M 8 5 L 8 9 M 13 5 L 13 9 M 18 5 L 18 9 M 22 5 L 22 9" stroke="white" stroke-width="1.5"/>
          <text x="15" y="30" text-anchor="middle" font-family="Arial" font-size="7" fill="white">Vest</text>
        </g>
        
        <!-- Mask -->
        <g transform="translate(80, 0)">
          <ellipse cx="15" cy="12" rx="12" ry="8" fill="white" opacity="0.9"/>
          <path d="M 6 10 Q 15 8 24 10 Q 24 14 15 16 Q 6 14 6 10" fill="#3498db"/>
          <circle cx="11" cy="11" r="1.5" fill="white"/>
          <circle cx="19" cy="11" r="1.5" fill="white"/>
          <path d="M 12 13 Q 15 14 18 13" stroke="white" stroke-width="1" fill="none"/>
          <text x="15" y="30" text-anchor="middle" font-family="Arial" font-size="7" fill="white">Mask</text>
        </g>
      </g>
      
      <text x="560" y="177" text-anchor="middle" font-family="Arial" font-size="7" fill="white">mAP@0.5: 96.6% | FPS: 21.5</text>
    </g>
    
    <!-- Arrow 3 -->
    <line x1="440" y1="120" x2="480" y2="120" stroke="#2c3e50" stroke-width="1.3" marker-end="url(#gradientArrow)" opacity="0.7"/>
    
    <!-- Stage 4: Object Tracking -->
    <g id="stage4">
      <rect x="680" y="80" width="140" height="90" rx="10" fill="url(#blueGradient)" 
            stroke="#2980b9" stroke-width="3"/>
      <text x="750" y="100" text-anchor="middle" font-family="Arial" font-size="12" fill="white" font-weight="bold">Object Tracking</text>
      <text x="750" y="115" text-anchor="middle" font-family="Arial" font-size="9" fill="white">EuclideanDistTracker</text>
      
      <!-- Tracking visualization -->
      <g transform="translate(710, 120)">
        <text x="8" y="8" text-anchor="middle" font-family="Arial" font-size="6" fill="white" font-weight="bold">ID: 1</text>
        <text x="28" y="8" text-anchor="middle" font-family="Arial" font-size="6" fill="white" font-weight="bold">ID: 2</text>
        <text x="48" y="8" text-anchor="middle" font-family="Arial" font-size="6" fill="white" font-weight="bold">ID: 3</text>
        
        <rect x="2" y="12" width="12" height="16" fill="none" stroke="white" stroke-width="1.5"/>
        <circle cx="8" cy="17" r="1.5" fill="#cac72cff"/>
        <rect x="6" y="19" width="4" height="6" fill="none" stroke="white" stroke-width="1"/>
        
        <rect x="22" y="12" width="12" height="16" fill="none" stroke="white" stroke-width="1.5"/>
        <circle cx="28" cy="17" r="1.5" fill="#e74c3c"/>
        <rect x="26" y="19" width="4" height="6" fill="none" stroke="white" stroke-width="1"/>
        
        <rect x="42" y="12" width="12" height="16" fill="none" stroke="white" stroke-width="1.5"/>
        <circle cx="48" cy="17" r="1.5" fill="#f39c12"/>
        <rect x="46" y="19" width="4" height="6" fill="none" stroke="white" stroke-width="1"/>
      </g>
      
      <text x="750" y="162" text-anchor="middle" font-family="Arial" font-size="7" fill="white">Distance: 100px threshold</text>
    </g>
    
    <!-- Arrow 4 -->
    <line x1="640" y1="122" x2="680" y2="122" stroke="#2c3e50" stroke-width="1.3" marker-end="url(#gradientArrow)" opacity="0.7"/>
    
    <!-- Stage 5: Compliance Analysis -->
    <g id="stage5">
      <rect x="860" y="60" width="140" height="110" rx="10" fill="url(#redGradient)" 
            stroke="#c0392b" stroke-width="3"/>
      <text x="930" y="80" text-anchor="middle" font-family="Arial" font-size="12" fill="white" font-weight="bold">Compliance Analysis</text>
      <text x="930" y="95" text-anchor="middle" font-family="Arial" font-size="9" fill="white">Safety Rules Engine</text>
      
      <!-- Compliance Status Icons -->
      <g transform="translate(890, 105)">
        <!-- Safe Status -->
        <g transform="translate(0, 0)">
          <circle cx="15" cy="12" r="10" fill="#27ae60" stroke="white" stroke-width="1"/>
          <path d="M 10 12 L 13 15 L 20 8" stroke="white" stroke-width="2" fill="none"/>
          <text x="15" y="30" text-anchor="middle" font-family="Arial" font-size="6" fill="white" font-weight="bold">SAFE</text>
        </g>
        
        <!-- Unsafe Status -->
        <g transform="translate(50, 0)">
          <circle cx="15" cy="12" r="10" fill="#e74c3c" stroke="white" stroke-width="1"/>
          <line x1="10" y1="7" x2="20" y2="17" stroke="white" stroke-width="2"/>
          <line x1="10" y1="17" x2="20" y2="7" stroke="white" stroke-width="2"/>
          <text x="15" y="30" text-anchor="middle" font-family="Arial" font-size="6" fill="white" font-weight="bold">UNSAFE</text>
        </g>
      </g>
      
      <text x="930" y="150" text-anchor="middle" font-family="Arial" font-size="7" fill="white">Rules: Helmet + Vest + Mask</text>
      <text x="930" y="162" text-anchor="middle" font-family="Arial" font-size="7" fill="white">Live Count: Safe | Unsafe</text>
    </g>
    
    <!-- Arrow 5 -->
    <line x1="820" y1="125" x2="860" y2="125" stroke="#2c3e50" stroke-width="1.3" marker-end="url(#gradientArrow)" opacity="0.7"/>
    
    <!-- Output Arrows -->
    <line x1="930" y1="170" x2="340" y2="280" stroke="#2c3e50" stroke-width="1.3" fill="none" marker-end="url(#gradientArrow)" opacity="0.7"/>
    <line x1="930" y1="170" x2="590" y2="280" stroke="#2c3e50" stroke-width="1.3" fill="none" marker-end="url(#gradientArrow)" opacity="0.7"/>
    <line x1="930" y1="170" x2="750" y2="280" stroke="#2c3e50" stroke-width="1.3" fill="none" marker-end="url(#gradientArrow)" opacity="0.7"/>
    
    <!-- Stage 6: Output & Storage -->
    <g id="stage6">
      <!-- Visual Output -->
      <rect x="200" y="280" width="200" height="100" rx="10" fill="#ecf0f1" 
            stroke="#bdc3c7" stroke-width="3"/>
      <text x="300" y="305" text-anchor="middle" font-family="Arial" font-size="12" fill="#2c3e50" font-weight="bold">Visual Output</text>
      
      <rect x="220" y="315" width="60" height="40" rx="4" fill="#34495e"/>
      <text x="250" y="335" text-anchor="middle" font-family="Arial" font-size="8" fill="white">Live Stream</text>
      <text x="250" y="345" text-anchor="middle" font-family="Arial" font-size="7" fill="white">with Overlays</text>
      
      <rect x="300" y="315" width="60" height="40" rx="4" fill="#3498db"/>
      <text x="330" y="335" text-anchor="middle" font-family="Arial" font-size="8" fill="white">Processed</text>
      <text x="330" y="345" text-anchor="middle" font-family="Arial" font-size="7" fill="white">Video Output</text>
      
      <!-- Database Storage -->
      <rect x="480" y="280" width="180" height="100" rx="10" fill="url(#blueGradient)" 
            stroke="#2980b9" stroke-width="3"/>
      <text x="570" y="300" text-anchor="middle" font-family="Arial" font-size="12" fill="white" font-weight="bold">PostgreSQL Database</text>
      
      <g transform="translate(500, 315)">
        <ellipse cx="12" cy="5" rx="10" ry="3" fill="white"/>
        <rect x="2" y="2" width="20" height="10" fill="white"/>
        <ellipse cx="12" cy="12" rx="10" ry="3" fill="white"/>
        <ellipse cx="12" cy="18" rx="10" ry="3" fill="white"/>
        <line x1="5" y1="6" x2="19" y2="6" stroke="url(#blueGradient)" stroke-width="1"/>
        <line x1="5" y1="9" x2="19" y2="9" stroke="url(#blueGradient)" stroke-width="1"/>
        <line x1="5" y1="15" x2="19" y2="15" stroke="url(#blueGradient)" stroke-width="1"/>
        
        <text x="30" y="8" font-family="Arial" font-size="8" fill="white">• User Sessions &amp; Auth</text>
        <text x="30" y="19" font-family="Arial" font-size="8" fill="white">• Detection Results</text>
        <text x="30" y="31" font-family="Arial" font-size="8" fill="white">• Activity Logs &amp; Audit</text>
      </g>
      
      <!-- Admin Dashboard -->
      <rect x="680" y="280" width="140" height="100" rx="10" fill="url(#orangeGradient)" 
            stroke="#e67e22" stroke-width="3"/>
      <text x="750" y="305" text-anchor="middle" font-family="Arial" font-size="12" fill="white" font-weight="bold">Admin Dashboard</text>
      
      <text x="750" y="325" text-anchor="middle" font-family="Arial" font-size="9" fill="white">• User Management</text>
      <text x="750" y="337" text-anchor="middle" font-family="Arial" font-size="9" fill="white">• System Statistics</text>
      <text x="750" y="349" text-anchor="middle" font-family="Arial" font-size="9" fill="white">• Audit Reports</text>
    </g>
  </g>
  
  <!-- THIRD PART: MAIN FEATURES -->
  <rect x="0" y="540" width="426" height="380" fill="#ecf0f1" stroke="#bdc3c7" stroke-width="1"/>
  <text x="213" y="570" text-anchor="middle" font-family="Arial, sans-serif" 
        font-size="16" font-weight="bold" fill="#2c3e50">
    Key Features &amp; Applications
  </text>
  
  <!-- Features Grid -->
  <g transform="translate(30, 590)">
    <!-- Real-time Detection -->
    <rect x="0" y="0" width="180" height="80" rx="8" fill="white" stroke="#3498db" stroke-width="2"/>
    <circle cx="25" cy="25" r="12" fill="#3498db"/>
    <text x="25" y="30" text-anchor="middle" font-family="Arial" font-size="8" fill="white" font-weight="bold">RT</text>
    <text x="50" y="22" font-family="Arial" font-size="11" fill="#2c3e50" font-weight="bold">Real-time Detection</text>
    <text x="50" y="35" font-family="Arial" font-size="8" fill="#2c3e50">• Live video processing</text>
    <text x="50" y="47" font-family="Arial" font-size="8" fill="#2c3e50">• Instant PPE identification</text>
    <text x="50" y="59" font-family="Arial" font-size="8" fill="#2c3e50">• Immediate alerts</text>
    
    <!-- Multi-class Detection -->
    <rect x="190" y="0" width="180" height="80" rx="8" fill="white" stroke="#27ae60" stroke-width="2"/>
    <circle cx="215" cy="25" r="12" fill="#27ae60"/>
    <text x="215" y="30" text-anchor="middle" font-family="Arial" font-size="8" fill="white" font-weight="bold">3C</text>
    <text x="240" y="22" font-family="Arial" font-size="11" fill="#2c3e50" font-weight="bold">Multi-class Detection</text>
    <text x="240" y="35" font-family="Arial" font-size="8" fill="#2c3e50">• Safety helmets</text>
    <text x="240" y="47" font-family="Arial" font-size="8" fill="#2c3e50">• High-visibility vests</text>
    <text x="240" y="59" font-family="Arial" font-size="8" fill="#2c3e50">• Face masks</text>
    
    <!-- User Management -->
    <rect x="0" y="90" width="180" height="80" rx="8" fill="white" stroke="#e67e22" stroke-width="2"/>
    <circle cx="25" cy="115" r="12" fill="#e67e22"/>
    <text x="25" y="120" text-anchor="middle" font-family="Arial" font-size="8" fill="white" font-weight="bold">UM</text>
    <text x="50" y="112" font-family="Arial" font-size="11" fill="#2c3e50" font-weight="bold">User Management</text>
    <text x="50" y="125" font-family="Arial" font-size="8" fill="#2c3e50">• Role-based access</text>
    <text x="50" y="137" font-family="Arial" font-size="8" fill="#2c3e50">• Admin dashboard</text>
    <text x="50" y="149" font-family="Arial" font-size="8" fill="#2c3e50">• Activity tracking</text>
    
    <!-- Data Analytics -->
    <rect x="190" y="90" width="180" height="80" rx="8" fill="white" stroke="#9b59b6" stroke-width="2"/>
    <circle cx="215" cy="115" r="12" fill="#9b59b6"/>
    <text x="215" y="120" text-anchor="middle" font-family="Arial" font-size="8" fill="white" font-weight="bold">DA</text>
    <text x="240" y="112" font-family="Arial" font-size="11" fill="#2c3e50" font-weight="bold">Data Analytics</text>
    <text x="240" y="125" font-family="Arial" font-size="8" fill="#2c3e50">• Compliance reports</text>
    <text x="240" y="137" font-family="Arial" font-size="8" fill="#2c3e50">• Statistical analysis</text>
    <text x="240" y="149" font-family="Arial" font-size="8" fill="#2c3e50">• Performance metrics</text>
    
    <!-- Technology Stack -->
    <rect x="0" y="190" width="366" height="120" rx="8" fill="#34495e" opacity="0.1" stroke="#34495e" stroke-width="2"/>
    <text x="183" y="215" text-anchor="middle" font-family="Arial" font-size="12" fill="#34495e" font-weight="bold">Technology Stack</text>
    
    <!-- Tech icons and labels - Scaled for pamphlet -->
    <g transform="translate(20, 230)">
      <!-- First Row -->
      <!-- Python/Flask -->
      <circle cx="25" cy="12" r="10" fill="#3776ab"/>
      <text x="25" y="16" text-anchor="middle" font-family="Arial" font-size="7" fill="white" font-weight="bold">Py</text>
      <text x="25" y="30" text-anchor="middle" font-family="Arial" font-size="7" fill="#2c3e50">Python/Flask</text>
      
      <!-- YOLOv8 -->
      <rect x="55" y="2" width="20" height="20" rx="3" fill="#00D4AA"/>
      <text x="65" y="15" text-anchor="middle" font-family="Arial" font-size="6" fill="white" font-weight="bold">YOLO</text>
      <text x="65" y="30" text-anchor="middle" font-family="Arial" font-size="7" fill="#2c3e50">YOLOv8l</text>
      
      <!-- PostgreSQL -->
      <circle cx="105" cy="12" r="10" fill="#336791"/>
      <text x="105" y="16" text-anchor="middle" font-family="Arial" font-size="6" fill="white" font-weight="bold">PG</text>
      <text x="105" y="30" text-anchor="middle" font-family="Arial" font-size="7" fill="#2c3e50">PostgreSQL</text>
      
      <!-- OpenCV -->
      <rect x="135" y="2" width="20" height="20" rx="3" fill="#5C85D6"/>
      <text x="145" y="15" text-anchor="middle" font-family="Arial" font-size="6" fill="white" font-weight="bold">CV</text>
      <text x="145" y="30" text-anchor="middle" font-family="Arial" font-size="7" fill="#2c3e50">OpenCV</text>
      
      <!-- Bootstrap -->
      <circle cx="185" cy="12" r="10" fill="#7952B3"/>
      <text x="185" y="16" text-anchor="middle" font-family="Arial" font-size="6" fill="white" font-weight="bold">BS</text>
      <text x="185" y="30" text-anchor="middle" font-family="Arial" font-size="7" fill="#2c3e50">Bootstrap</text>
      
      <!-- jQuery -->
      <rect x="215" y="2" width="20" height="20" rx="3" fill="#0769AD"/>
      <text x="225" y="15" text-anchor="middle" font-family="Arial" font-size="6" fill="white" font-weight="bold">jQ</text>
      <text x="225" y="30" text-anchor="middle" font-family="Arial" font-size="7" fill="#2c3e50">jQuery</text>
      
      <!-- CUDA -->
      <circle cx="265" cy="12" r="10" fill="#76B900"/>
      <text x="265" y="16" text-anchor="middle" font-family="Arial" font-size="6" fill="white" font-weight="bold">GPU</text>
      <text x="265" y="30" text-anchor="middle" font-family="Arial" font-size="7" fill="#2c3e50">CUDA</text>
      
      <!-- HTML5 -->
      <rect x="295" y="2" width="20" height="20" rx="3" fill="#E34F26"/>
      <text x="305" y="15" text-anchor="middle" font-family="Arial" font-size="6" fill="white" font-weight="bold">H5</text>
      <text x="305" y="30" text-anchor="middle" font-family="Arial" font-size="7" fill="#2c3e50">HTML5</text>
      
      <!-- Second Row - Properly spaced -->
      <!-- REST API -->
      <circle cx="25" cy="62" r="10" fill="#FF6B6B"/>
      <text x="25" y="66" text-anchor="middle" font-family="Arial" font-size="5" fill="white" font-weight="bold">API</text>
      <text x="25" y="80" text-anchor="middle" font-family="Arial" font-size="7" fill="#2c3e50">REST API</text>
      
      <!-- Enterprise Ready -->
      <text x="120" y="62" text-anchor="middle" font-family="Arial" font-size="8" fill="#2c3e50" font-weight="bold">Enterprise-Ready</text>
      <text x="120" y="75" text-anchor="middle" font-family="Arial" font-size="7" fill="#2c3e50">Modern Web Technologies</text>
      
      <!-- AI Powered -->
      <text x="250" y="62" text-anchor="middle" font-family="Arial" font-size="8" fill="#2c3e50" font-weight="bold">AI-Powered</text>
      <text x="250" y="75" text-anchor="middle" font-family="Arial" font-size="7" fill="#2c3e50">Computer Vision Pipeline</text>
    </g>
  </g>
  
  <!-- FOURTH PART: TEAM MEMBERS -->
  <rect x="0" y="930" width="426" height="200" fill="url(#titleGradient)"/>
  <text x="213" y="960" text-anchor="middle" font-family="Arial, sans-serif" 
        font-size="16" font-weight="bold" fill="white">
    Project Team
  </text>
  
  <!-- Team Members -->
  <g transform="translate(30, 980)">
    <!-- Member 1 -->
    <rect x="0" y="0" width="110" height="60" rx="8" fill="rgba(255,255,255,0.1)" stroke="white" stroke-width="1"/>
    <text x="55" y="25" text-anchor="middle" font-family="Arial" font-size="10" fill="white" font-weight="bold">Umer Ali</text>
    <text x="55" y="45" text-anchor="middle" font-family="Arial" font-size="8" fill="#bdc3c7">ID: FA21-BIT-028</text>
    
    <!-- Member 2 -->
    <rect x="120" y="0" width="110" height="60" rx="8" fill="rgba(255,255,255,0.1)" stroke="white" stroke-width="1"/>
    <text x="175" y="25" text-anchor="middle" font-family="Arial" font-size="10" fill="white" font-weight="bold">Zain Farooq</text>
    <text x="175" y="45" text-anchor="middle" font-family="Arial" font-size="8" fill="#bdc3c7">ID: FA21-BIT-059</text>
    
    <!-- Member 3 -->
    <rect x="240" y="0" width="110" height="60" rx="8" fill="rgba(255,255,255,0.1)" stroke="white" stroke-width="1"/>
    <text x="295" y="25" text-anchor="middle" font-family="Arial" font-size="10" fill="white" font-weight="bold">Abdul Qudoos</text>
    <text x="295" y="45" text-anchor="middle" font-family="Arial" font-size="8" fill="#bdc3c7">ID: FA21-BIT-077</text>
    
    <!-- Supervisor -->
    <rect x="60" y="70" width="240" height="50" rx="8" fill="rgba(255,255,255,0.15)" stroke="white" stroke-width="2"/>
    <text x="180" y="90" text-anchor="middle" font-family="Arial" font-size="11" fill="white" font-weight="bold">Project Supervisor</text>
    <text x="180" y="105" text-anchor="middle" font-family="Arial" font-size="10" fill="#ecf0f1">Zain ul Abadeen</text>
    <text x="180" y="118" text-anchor="middle" font-family="Arial" font-size="8" fill="#bdc3c7">Lecturer</text>
  </g>
  
  <!-- FIFTH PART: DEPARTMENT -->
  <rect x="0" y="1140" width="426" height="140" fill="#2c3e50"/>
  <text x="213" y="1175" text-anchor="middle" font-family="Arial, sans-serif" 
        font-size="14" font-weight="bold" fill="white">
    Department of Computer Science and
  </text>
  <text x="213" y="1195" text-anchor="middle" font-family="Arial, sans-serif" 
        font-size="14" font-weight="bold" fill="white">
    Information Technology
  </text>
  <text x="213" y="1220" text-anchor="middle" font-family="Arial, sans-serif" 
        font-size="16" font-weight="bold" fill="#3498db">
    (MUST)
  </text>
  <text x="213" y="1245" text-anchor="middle" font-family="Arial, sans-serif" 
        font-size="10" fill="#bdc3c7">
    Final Year Project - Academic Year 2024-25
  </text>
  <text x="213" y="1265" text-anchor="middle" font-family="Arial, sans-serif" 
        font-size="8" fill="#95a5a6">
    Mirpur University of Science &amp; Technology
  </text>
</svg>
