<svg width="426" height="1280" xmlns="http://www.w3.org/2000/svg">
  <defs>
    <!-- Gradients for modern look -->
    <linearGradient id="blueGradient" x1="0%" y1="0%" x2="100%" y2="100%">
      <stop offset="0%" style="stop-color:#3498db;stop-opacity:1" />
      <stop offset="100%" style="stop-color:#2980b9;stop-opacity:1" />
    </linearGradient>
    
    <linearGradient id="greenGradient" x1="0%" y1="0%" x2="100%" y2="100%">
      <stop offset="0%" style="stop-color:#27ae60;stop-opacity:1" />
      <stop offset="100%" style="stop-color:#229954;stop-opacity:1" />
    </linearGradient>
    
    <linearGradient id="orangeGradient" x1="0%" y1="0%" x2="100%" y2="100%">
      <stop offset="0%" style="stop-color:#f39c12;stop-opacity:1" />
      <stop offset="100%" style="stop-color:#e67e22;stop-opacity:1" />
    </linearGradient>
    
    <linearGradient id="redGradient" x1="0%" y1="0%" x2="100%" y2="100%">
      <stop offset="0%" style="stop-color:#e74c3c;stop-opacity:1" />
      <stop offset="100%" style="stop-color:#c0392b;stop-opacity:1" />
    </linearGradient>
    
    <linearGradient id="titleGradient" x1="0%" y1="0%" x2="100%" y2="100%">
      <stop offset="0%" style="stop-color:#2c3e50;stop-opacity:1" />
      <stop offset="100%" style="stop-color:#34495e;stop-opacity:1" />
    </linearGradient>
    
    <!-- Arrow marker -->
    <marker id="arrowhead" markerWidth="4" markerHeight="3" 
            refX="4" refY="1.5" orient="auto">
      <polygon points="0 0, 4 1.5, 0 3" fill="#2c3e50" />
    </marker>
    
    <!-- Enhanced arrow marker with gradient -->
    <marker id="gradientArrow" markerWidth="5" markerHeight="4" 
            refX="5" refY="2" orient="auto">
      <polygon points="0 0, 5 2, 0 4" fill="url(#arrowGradient)" stroke="#2c3e50" stroke-width="0.2"/>
    </marker>
    
    <!-- Arrow gradient -->
    <linearGradient id="arrowGradient" x1="0%" y1="0%" x2="100%" y2="0%">
      <stop offset="0%" style="stop-color:#3498db;stop-opacity:1" />
      <stop offset="100%" style="stop-color:#2c3e50;stop-opacity:1" />
    </linearGradient>
  </defs>
  
  <!-- Background -->
  <rect width="426" height="1280" fill="#f8f9fa"/>
  
  <!-- FIRST PART: PROJECT TITLE -->
  <rect x="0" y="0" width="426" height="120" fill="url(#titleGradient)"/>
  <text x="213" y="40" text-anchor="middle" font-family="Arial, sans-serif" 
        font-size="18" font-weight="bold" fill="white">
    Safety Compliance Detection System
  </text>
  <text x="213" y="65" text-anchor="middle" font-family="Arial, sans-serif" 
        font-size="12" fill="#ecf0f1">
    Real-time PPE Detection using YOLOv8l
  </text>
  <text x="213" y="85" text-anchor="middle" font-family="Arial, sans-serif" 
        font-size="10" fill="#bdc3c7">
    Helmet • Safety Vest • Face Mask Detection
  </text>
  
  <!-- SECOND PART: METHOD DIAGRAM (WHITE BACKGROUND) - INCREASED HEIGHT -->
  <rect x="10" y="130" width="406" height="500" fill="white" stroke="#bdc3c7" stroke-width="1" rx="8"/>
  
  <!-- Method Diagram Title -->
  <text x="213" y="155" text-anchor="middle" font-family="Arial, sans-serif" 
        font-size="14" font-weight="bold" fill="#2c3e50">
    System Architecture
  </text>
  
  <!-- REDESIGNED METHOD DIAGRAM - COMPACT 2-TIER LAYOUT -->
  <g transform="translate(20, 170) scale(1.0)">
    <!-- TIER 1: INPUT AND PREPROCESSING FLOW -->
    <!-- Stage 1: User Authentication & Input - ADJUSTED SIZE -->
    <g id="stage1">
      <!-- User Icon - SLIGHTLY SMALLER -->
      <circle cx="50" cy="25" r="18" fill="url(#blueGradient)" stroke="#2980b9" stroke-width="1.5"/>
      <circle cx="50" cy="20" r="6" fill="white"/>
      <path d="M 35 31 Q 50 28 65 31" stroke="white" stroke-width="2.5" fill="none"/>
      
      <!-- Authentication Box - ADJUSTED CONTENT SPACING -->
      <rect x="15" y="60" width="70" height="45" rx="6" fill="url(#blueGradient)" 
            stroke="#2980b9" stroke-width="1.5"/>
      <text x="50" y="80" text-anchor="middle" font-family="Arial" font-size="9" fill="white" font-weight="bold">User Login</text>
      <text x="50" y="90" text-anchor="middle" font-family="Arial" font-size="7" fill="white">Authentication</text>
      <text x="50" y="100" text-anchor="middle" font-family="Arial" font-size="7" fill="white">&amp; Session</text>
      
      <!-- Input Selection - UPDATED HEIGHT -->
      <rect x="130" y="15" width="75" height="55" rx="6" fill="#ecf0f1" 
            stroke="#bdc3c7" stroke-width="1.5"/>
      <text x="167" y="32" text-anchor="middle" font-family="Arial" font-size="9" fill="#2c3e50" font-weight="bold">Input Selection</text>
      
      <!-- Webcam Option - ADJUSTED POSITION WITH TEXT INSIDE BOX -->
      <rect x="138" y="40" width="28" height="25" rx="3" fill="url(#greenGradient)"/>
      <circle cx="152" cy="49" r="6" fill="white"/>
      <circle cx="152" cy="49" r="3" fill="url(#greenGradient)"/>
      <text x="152" y="62" text-anchor="middle" font-family="Arial" font-size="5" fill="white">Webcam</text>
      
      <!-- Upload Option - ADJUSTED POSITION WITH TEXT INSIDE BOX -->
      <rect x="170" y="40" width="28" height="25" rx="3" fill="url(#orangeGradient)"/>
      <rect x="174" y="44" width="20" height="12" rx="1" fill="white"/>
      <path d="M 180 47 L 184 51 L 188 47" stroke="url(#orangeGradient)" stroke-width="1.8" fill="none"/>
      <text x="184" y="62" text-anchor="middle" font-family="Arial" font-size="5" fill="white">Upload</text>
    </g>
    
    <!-- Arrow 1 - ADJUSTED FOR NEW HEIGHTS -->
    <line x1="85" y1="75" x2="130" y2="52" stroke="#2c3e50" stroke-width="1" marker-end="url(#gradientArrow)" opacity="0.7"/>
    
    <!-- Stage 2: Video Processing - UPDATED HEIGHT -->
    <g id="stage2">
      <rect x="240" y="15" width="90" height="60" rx="6" fill="url(#orangeGradient)" 
            stroke="#e67e22" stroke-width="2"/>
      <text x="285" y="32" text-anchor="middle" font-family="Arial" font-size="9" fill="white" font-weight="bold">Video Processing</text>
      
      <!-- Frame extraction icon - PROPERLY SPACED -->
      <g transform="translate(255, 40)">
        <rect x="0" y="0" width="16" height="12" rx="1" fill="white" opacity="0.9"/>
        <rect x="1" y="1" width="14" height="10" fill="url(#orangeGradient)"/>
        <rect x="2" y="2" width="4" height="2.5" fill="white"/>
        <rect x="6.5" y="2" width="4" height="2.5" fill="white"/>
        <rect x="11" y="2" width="4" height="2.5" fill="white"/>
      </g>
      <text x="263" y="62" text-anchor="middle" font-family="Arial" font-size="5" fill="white">Frame</text>
      <text x="263" y="68" text-anchor="middle" font-family="Arial" font-size="5" fill="white">Extraction</text>
      
      <!-- Preprocessing icon - PROPERLY SPACED -->
      <g transform="translate(300, 40)">
        <circle cx="8" cy="8" r="7" fill="white" opacity="0.9"/>
        <path d="M 2 8 L 8 2 L 14 8 L 8 14 Z" fill="url(#orangeGradient)"/>
        <circle cx="8" cy="8" r="3" fill="white"/>
      </g>
      <text x="308" y="62" text-anchor="middle" font-family="Arial" font-size="5" fill="white">Pre-</text>
      <text x="308" y="68" text-anchor="middle" font-family="Arial" font-size="5" fill="white">processing</text>
    </g>
    
    <!-- Arrow 2 - ADJUSTED FOR NEW HEIGHTS -->
    <line x1="205" y1="47" x2="240" y2="47" stroke="#2c3e50" stroke-width="1" marker-end="url(#gradientArrow)" opacity="0.7"/>
    
    <!-- Arrow 3 - From Video Processing to YOLOv8l Detection - UPDATED FOR NEW POSITION -->
    <line x1="330" y1="75" x2="300" y2="130" stroke="#2c3e50" stroke-width="1" marker-end="url(#gradientArrow)" opacity="0.7"/>
    
    <!-- Stage 5: Compliance Analysis - CENTERED IN ROW 3 -->
    <g id="stage5">
      <rect x="150" y="220" width="120" height="70" rx="6" fill="url(#redGradient)" 
            stroke="#c0392b" stroke-width="2"/>
      <text x="210" y="235" text-anchor="middle" font-family="Arial" font-size="8" fill="white" font-weight="bold">Compliance Analysis</text>
      <text x="210" y="245" text-anchor="middle" font-family="Arial" font-size="6" fill="white">Safety Rules Engine</text>
      
      <!-- Compliance Status Icons - PROPERLY SPACED -->
      <g transform="translate(170, 255)">
        <!-- Safe Status -->
        <g transform="translate(0, 0)">
          <circle cx="10" cy="8" r="7" fill="#27ae60" stroke="white" stroke-width="0.8"/>
          <path d="M 6 8 L 9 11 L 14 6" stroke="white" stroke-width="1.5" fill="none"/>
          <text x="10" y="21" text-anchor="middle" font-family="Arial" font-size="4" fill="white" font-weight="bold">SAFE</text>
        </g>
        
        <!-- Unsafe Status -->
        <g transform="translate(30, 0)">
          <circle cx="10" cy="8" r="7" fill="#e74c3c" stroke="white" stroke-width="0.8"/>
          <line x1="6" y1="5" x2="14" y2="11" stroke="white" stroke-width="1.5"/>
          <line x1="6" y1="11" x2="14" y2="5" stroke="white" stroke-width="1.5"/>
          <text x="10" y="21" text-anchor="middle" font-family="Arial" font-size="4" fill="white" font-weight="bold">UNSAFE</text>
        </g>
      </g>
      
      <text x="210" y="282" text-anchor="middle" font-family="Arial" font-size="5" fill="white">Rules: Helmet + Vest + Mask</text>
    </g>
    
    <!-- TIER 2: ANALYSIS FLOW -->
    <!-- Stage 4: Object Tracking - SHIFTED MORE LEFT -->
    <g id="stage4">
      <rect x="80" y="130" width="120" height="60" rx="6" fill="url(#blueGradient)" 
            stroke="#2980b9" stroke-width="2"/>
      <text x="140" y="145" text-anchor="middle" font-family="Arial" font-size="8" fill="white" font-weight="bold">Object Tracking</text>
      <text x="140" y="155" text-anchor="middle" font-family="Arial" font-size="6" fill="white">EuclideanDistTracker</text>
      
      <!-- Tracking visualization -->
      <g transform="translate(100, 165)">
        <text x="5" y="5" text-anchor="middle" font-family="Arial" font-size="4" fill="white" font-weight="bold">ID:1</text>
        <text x="20" y="5" text-anchor="middle" font-family="Arial" font-size="4" fill="white" font-weight="bold">ID:2</text>
        <text x="35" y="5" text-anchor="middle" font-family="Arial" font-size="4" fill="white" font-weight="bold">ID:3</text>
        
        <rect x="1" y="8" width="8" height="10" fill="none" stroke="white" stroke-width="1"/>
        <circle cx="5" cy="11" r="1" fill="#cac72cff"/>
        <rect x="3" y="13" width="4" height="4" fill="none" stroke="white" stroke-width="0.8"/>
        
        <rect x="16" y="8" width="8" height="10" fill="none" stroke="white" stroke-width="1"/>
        <circle cx="20" cy="11" r="1" fill="#e74c3c"/>
        <rect x="18" y="13" width="4" height="4" fill="none" stroke="white" stroke-width="0.8"/>
        
        <rect x="31" y="8" width="8" height="10" fill="none" stroke="white" stroke-width="1"/>
        <circle cx="35" cy="11" r="1" fill="#f39c12"/>
        <rect x="33" y="13" width="4" height="4" fill="none" stroke="white" stroke-width="0.8"/>
      </g>
      
      <text x="140" y="185" text-anchor="middle" font-family="Arial" font-size="5" fill="white">Distance: 100px threshold</text>
    </g>
    
    <!-- Stage 3: YOLOv8l Detection Engine - SHIFTED MORE LEFT -->
    <g id="stage3">
      <rect x="220" y="130" width="120" height="75" rx="8" fill="url(#greenGradient)" 
            stroke="#27ae60" stroke-width="2"/>
      <text x="280" y="145" text-anchor="middle" font-family="Arial" font-size="9" fill="white" font-weight="bold">YOLOv8l Detection</text>
      <text x="280" y="155" text-anchor="middle" font-family="Arial" font-size="9" fill="white" font-weight="bold">Engine</text>
      
      <!-- Neural Network Icon -->
      <g transform="translate(235, 162)">
        <circle cx="8" cy="6" r="3" fill="white"/>
        <circle cx="25" cy="3" r="3" fill="white"/>
        <circle cx="25" cy="9" r="3" fill="white"/>
        <circle cx="42" cy="6" r="3" fill="white"/>
        <line x1="11" y1="6" x2="22" y2="4" stroke="white" stroke-width="0.8"/>
        <line x1="11" y1="6" x2="22" y2="8" stroke="white" stroke-width="0.8"/>
        <line x1="28" y1="4" x2="39" y2="6" stroke="white" stroke-width="0.8"/>
        <line x1="28" y1="8" x2="39" y2="6" stroke="white" stroke-width="0.8"/>
        <text x="25" y="18" text-anchor="middle" font-family="Arial" font-size="5" fill="white">Neural Network</text>
      </g>
      
      <!-- PPE Detection Classes -->
      <g transform="translate(235, 180)">
        <!-- Helmet -->
        <g transform="translate(0, 0)">
          <circle cx="10" cy="8" r="6" fill="white" opacity="0.9"/>
          <path d="M 6 6 Q 10 3 14 6 Q 14 10 10 12 Q 6 10 6 6" fill="#f1c40f"/>
          <text x="10" y="20" text-anchor="middle" font-family="Arial" font-size="5" fill="white">Helmet</text>
        </g>
        
        <!-- Vest -->
        <g transform="translate(30, 0)">
          <circle cx="10" cy="8" r="7" fill="white" opacity="0.9"/>
          <rect x="4" y="3" width="12" height="10" rx="2" fill="#e67e22"/>
          <path d="M 6 3 L 6 6 M 9 3 L 9 6 M 12 3 L 12 6 M 15 3 L 15 6" stroke="white" stroke-width="1"/>
          <text x="10" y="20" text-anchor="middle" font-family="Arial" font-size="5" fill="white">Vest</text>
        </g>
        
        <!-- Mask -->
        <g transform="translate(60, 0)">
          <ellipse cx="10" cy="8" rx="8" ry="5" fill="white" opacity="0.9"/>
          <path d="M 4 7 Q 10 5 16 7 Q 16 9 10 11 Q 4 9 4 7" fill="#3498db"/>
          <circle cx="7" cy="7" r="1" fill="white"/>
          <circle cx="13" cy="7" r="1" fill="white"/>
          <path d="M 8 9 Q 10 9.5 12 9" stroke="white" stroke-width="0.7" fill="none"/>
          <text x="10" y="20" text-anchor="middle" font-family="Arial" font-size="5" fill="white">Mask</text>
        </g>
      </g>
      
      <text x="280" y="202" text-anchor="middle" font-family="Arial" font-size="5" fill="white">mAP@0.5: 96.6% | FPS: 21.5</text>
    </g>
    
    <!-- TIER 4: OUTPUT & STORAGE - MOVED DOWN FOR NEW ROW STRUCTURE -->
    <!-- Stage 6: Output & Storage -->
    <g id="stage6">
      <!-- Visual Output -->
      <rect x="15" y="310" width="90" height="60" rx="6" fill="#ecf0f1" 
            stroke="#bdc3c7" stroke-width="2"/>
      <text x="60" y="330" text-anchor="middle" font-family="Arial" font-size="8" fill="#2c3e50" font-weight="bold">Visual Output</text>
      
      <rect x="25" y="340" width="30" height="20" rx="2" fill="#34495e"/>
      <text x="40" y="350" text-anchor="middle" font-family="Arial" font-size="5" fill="white">Live</text>
      <text x="40" y="357" text-anchor="middle" font-family="Arial" font-size="5" fill="white">Stream</text>
      
      <rect x="60" y="340" width="30" height="20" rx="2" fill="#3498db"/>
      <text x="75" y="350" text-anchor="middle" font-family="Arial" font-size="5" fill="white">Video</text>
      <text x="75" y="357" text-anchor="middle" font-family="Arial" font-size="5" fill="white">Output</text>
      
      <!-- Database Storage -->
      <rect x="125" y="310" width="100" height="60" rx="6" fill="url(#blueGradient)" 
            stroke="#2980b9" stroke-width="2"/>
      <text x="175" y="330" text-anchor="middle" font-family="Arial" font-size="8" fill="white" font-weight="bold">PostgreSQL Database</text>
      
      <g transform="translate(135, 340)">
        <ellipse cx="8" cy="3" rx="6" ry="2" fill="white"/>
        <rect x="2" y="1" width="12" height="6" fill="white"/>
        <ellipse cx="8" cy="7" rx="6" ry="2" fill="white"/>
        <ellipse cx="8" cy="11" rx="6" ry="2" fill="white"/>
        <line x1="4" y1="3" x2="12" y2="3" stroke="url(#blueGradient)" stroke-width="0.8"/>
        <line x1="4" y1="5" x2="12" y2="5" stroke="url(#blueGradient)" stroke-width="0.8"/>
        <line x1="4" y1="9" x2="12" y2="9" stroke="url(#blueGradient)" stroke-width="0.8"/>
        
        <text x="18" y="4" font-family="Arial" font-size="5" fill="white">• Users &amp; Auth</text>
        <text x="18" y="9" font-family="Arial" font-size="5" fill="white">• Detection Data</text>
        <text x="18" y="14" font-family="Arial" font-size="5" fill="white">• Activity Logs</text>
      </g>
      
      <!-- Admin Dashboard -->
      <rect x="245" y="310" width="80" height="60" rx="6" fill="url(#orangeGradient)" 
            stroke="#e67e22" stroke-width="2"/>
      <text x="285" y="330" text-anchor="middle" font-family="Arial" font-size="8" fill="white" font-weight="bold">Admin Dashboard</text>
      
      <text x="285" y="345" text-anchor="middle" font-family="Arial" font-size="6" fill="white">• User Management</text>
      <text x="285" y="355" text-anchor="middle" font-family="Arial" font-size="6" fill="white">• System Statistics</text>
      <text x="285" y="365" text-anchor="middle" font-family="Arial" font-size="6" fill="white">• Audit Reports</text>
    </g>
    
    <!-- CONNECTING ARROWS BETWEEN TIERS -->
    <!-- From YOLOv8l Detection to Object Tracking (Row 2 - right to left) -->
    <line x1="220" y1="167" x2="200" y2="160" stroke="#2c3e50" stroke-width="1.2" marker-end="url(#gradientArrow)" opacity="0.7"/>
    
    <!-- From Object Tracking to Compliance Analysis (Row 2 to Row 3 - down) -->
    <line x1="140" y1="190" x2="210" y2="220" stroke="#2c3e50" stroke-width="1.2" marker-end="url(#gradientArrow)" opacity="0.7"/>
    
    <!-- From Compliance Analysis (Row 3) to Outputs (Row 4) - UPDATED FOR CENTERED POSITION -->
    <line x1="210" y1="290" x2="60" y2="310" stroke="#2c3e50" stroke-width="1.2" marker-end="url(#gradientArrow)" opacity="0.7"/>
    <line x1="210" y1="290" x2="175" y2="310" stroke="#2c3e50" stroke-width="1.2" marker-end="url(#gradientArrow)" opacity="0.7"/>
    <line x1="210" y1="290" x2="285" y2="310" stroke="#2c3e50" stroke-width="1.2" marker-end="url(#gradientArrow)" opacity="0.7"/>
  </g>
  
  <!-- THIRD PART: MAIN FEATURES - REDUCED HEIGHT -->
  <rect x="0" y="640" width="426" height="280" fill="#ecf0f1" stroke="#bdc3c7" stroke-width="1"/>
  <text x="213" y="670" text-anchor="middle" font-family="Arial, sans-serif" 
        font-size="16" font-weight="bold" fill="#2c3e50">
    Key Features &amp; Applications
  </text>
  
  <!-- Features Grid - Compact Layout -->
  <g transform="translate(30, 690)">
    <!-- Real-time Detection -->
    <rect x="0" y="0" width="180" height="60" rx="8" fill="white" stroke="#3498db" stroke-width="2"/>
    <circle cx="20" cy="20" r="10" fill="#3498db"/>
    <text x="20" y="25" text-anchor="middle" font-family="Arial" font-size="7" fill="white" font-weight="bold">RT</text>
    <text x="40" y="18" font-family="Arial" font-size="10" fill="#2c3e50" font-weight="bold">Real-time Detection</text>
    <text x="40" y="30" font-family="Arial" font-size="7" fill="#2c3e50">• Live video processing</text>
    <text x="40" y="40" font-family="Arial" font-size="7" fill="#2c3e50">• Instant PPE identification</text>
    <text x="40" y="50" font-family="Arial" font-size="7" fill="#2c3e50">• Immediate alerts</text>
    
    <!-- Multi-class Detection -->
    <rect x="190" y="0" width="180" height="60" rx="8" fill="white" stroke="#27ae60" stroke-width="2"/>
    <circle cx="210" cy="20" r="10" fill="#27ae60"/>
    <text x="210" y="25" text-anchor="middle" font-family="Arial" font-size="7" fill="white" font-weight="bold">3C</text>
    <text x="230" y="18" font-family="Arial" font-size="10" fill="#2c3e50" font-weight="bold">Multi-class Detection</text>
    <text x="230" y="30" font-family="Arial" font-size="7" fill="#2c3e50">• Safety helmets</text>
    <text x="230" y="40" font-family="Arial" font-size="7" fill="#2c3e50">• High-visibility vests</text>
    <text x="230" y="50" font-family="Arial" font-size="7" fill="#2c3e50">• Face masks</text>
    
    <!-- User Management -->
    <rect x="0" y="70" width="180" height="60" rx="8" fill="white" stroke="#e67e22" stroke-width="2"/>
    <circle cx="20" cy="90" r="10" fill="#e67e22"/>
    <text x="20" y="95" text-anchor="middle" font-family="Arial" font-size="7" fill="white" font-weight="bold">UM</text>
    <text x="40" y="88" font-family="Arial" font-size="10" fill="#2c3e50" font-weight="bold">User Management</text>
    <text x="40" y="100" font-family="Arial" font-size="7" fill="#2c3e50">• Role-based access</text>
    <text x="40" y="110" font-family="Arial" font-size="7" fill="#2c3e50">• Admin dashboard</text>
    <text x="40" y="120" font-family="Arial" font-size="7" fill="#2c3e50">• Activity tracking</text>
    
    <!-- Data Analytics -->
    <rect x="190" y="70" width="180" height="60" rx="8" fill="white" stroke="#9b59b6" stroke-width="2"/>
    <circle cx="210" cy="90" r="10" fill="#9b59b6"/>
    <text x="210" y="95" text-anchor="middle" font-family="Arial" font-size="7" fill="white" font-weight="bold">DA</text>
    <text x="230" y="88" font-family="Arial" font-size="10" fill="#2c3e50" font-weight="bold">Data Analytics</text>
    <text x="230" y="100" font-family="Arial" font-size="7" fill="#2c3e50">• Compliance reports</text>
    <text x="230" y="110" font-family="Arial" font-size="7" fill="#2c3e50">• Statistical analysis</text>
    <text x="230" y="120" font-family="Arial" font-size="7" fill="#2c3e50">• Performance metrics</text>
    
    <!-- Technology Stack - Compact -->
    <rect x="0" y="140" width="366" height="100" rx="8" fill="#34495e" opacity="0.1" stroke="#34495e" stroke-width="2"/>
    <text x="183" y="160" text-anchor="middle" font-family="Arial" font-size="11" fill="#34495e" font-weight="bold">Technology Stack</text>
    
    <!-- Tech icons - More compact -->
    <g transform="translate(15, 170)">
      <!-- First Row -->
      <circle cx="20" cy="10" r="8" fill="#3776ab"/>
      <text x="20" y="14" text-anchor="middle" font-family="Arial" font-size="6" fill="white" font-weight="bold">Py</text>
      <text x="20" y="25" text-anchor="middle" font-family="Arial" font-size="6" fill="#2c3e50">Python</text>
      
      <rect x="45" y="2" width="16" height="16" rx="2" fill="#00D4AA"/>
      <text x="53" y="12" text-anchor="middle" font-family="Arial" font-size="5" fill="white" font-weight="bold">YOLO</text>
      <text x="53" y="25" text-anchor="middle" font-family="Arial" font-size="6" fill="#2c3e50">YOLOv8l</text>
      
      <circle cx="85" cy="10" r="8" fill="#336791"/>
      <text x="85" y="14" text-anchor="middle" font-family="Arial" font-size="5" fill="white" font-weight="bold">PG</text>
      <text x="85" y="25" text-anchor="middle" font-family="Arial" font-size="6" fill="#2c3e50">PostgreSQL</text>
      
      <rect x="110" y="2" width="16" height="16" rx="2" fill="#5C85D6"/>
      <text x="118" y="12" text-anchor="middle" font-family="Arial" font-size="5" fill="white" font-weight="bold">CV</text>
      <text x="118" y="25" text-anchor="middle" font-family="Arial" font-size="6" fill="#2c3e50">OpenCV</text>
      
      <circle cx="150" cy="10" r="8" fill="#7952B3"/>
      <text x="150" y="14" text-anchor="middle" font-family="Arial" font-size="5" fill="white" font-weight="bold">BS</text>
      <text x="150" y="25" text-anchor="middle" font-family="Arial" font-size="6" fill="#2c3e50">Bootstrap</text>
      
      <rect x="175" y="2" width="16" height="16" rx="2" fill="#0769AD"/>
      <text x="183" y="12" text-anchor="middle" font-family="Arial" font-size="5" fill="white" font-weight="bold">jQ</text>
      <text x="183" y="25" text-anchor="middle" font-family="Arial" font-size="6" fill="#2c3e50">jQuery</text>
      
      <circle cx="215" cy="10" r="8" fill="#76B900"/>
      <text x="215" y="14" text-anchor="middle" font-family="Arial" font-size="5" fill="white" font-weight="bold">GPU</text>
      <text x="215" y="25" text-anchor="middle" font-family="Arial" font-size="6" fill="#2c3e50">CUDA</text>
      
      <rect x="240" y="2" width="16" height="16" rx="2" fill="#E34F26"/>
      <text x="248" y="12" text-anchor="middle" font-family="Arial" font-size="5" fill="white" font-weight="bold">H5</text>
      <text x="248" y="25" text-anchor="middle" font-family="Arial" font-size="6" fill="#2c3e50">HTML5</text>
      
      <circle cx="280" cy="10" r="8" fill="#FF6B6B"/>
      <text x="280" y="14" text-anchor="middle" font-family="Arial" font-size="4" fill="white" font-weight="bold">API</text>
      <text x="280" y="25" text-anchor="middle" font-family="Arial" font-size="6" fill="#2c3e50">REST API</text>
      
      <circle cx="320" cy="10" r="8" fill="#2c3e50"/>
      <text x="320" y="14" text-anchor="middle" font-family="Arial" font-size="5" fill="white" font-weight="bold">JS</text>
      <text x="320" y="25" text-anchor="middle" font-family="Arial" font-size="6" fill="#2c3e50">JavaScript</text>
      
      <!-- Second Row -->
      <text x="90" y="45" text-anchor="middle" font-family="Arial" font-size="7" fill="#2c3e50" font-weight="bold">Enterprise-Ready Solution</text>
      <text x="270" y="45" text-anchor="middle" font-family="Arial" font-size="7" fill="#2c3e50" font-weight="bold">AI-Powered Detection</text>
      <text x="180" y="60" text-anchor="middle" font-family="Arial" font-size="7" fill="#2c3e50">Modern Web Technologies &amp; Real-time Processing</text>
    </g>
  </g>
  
  <!-- FOURTH PART: TEAM MEMBERS -->
  <rect x="0" y="930" width="426" height="200" fill="url(#titleGradient)"/>
  <text x="213" y="960" text-anchor="middle" font-family="Arial, sans-serif" 
        font-size="16" font-weight="bold" fill="white">
    Project Team
  </text>
  
  <!-- Team Members -->
  <g transform="translate(30, 980)">
    <!-- Member 1 -->
    <rect x="0" y="0" width="110" height="60" rx="8" fill="rgba(255,255,255,0.1)" stroke="white" stroke-width="1"/>
    <text x="55" y="25" text-anchor="middle" font-family="Arial" font-size="10" fill="white" font-weight="bold">Umer Ali</text>
    <text x="55" y="45" text-anchor="middle" font-family="Arial" font-size="8" fill="#bdc3c7">ID: FA21-BIT-028</text>
    
    <!-- Member 2 -->
    <rect x="120" y="0" width="110" height="60" rx="8" fill="rgba(255,255,255,0.1)" stroke="white" stroke-width="1"/>
    <text x="175" y="25" text-anchor="middle" font-family="Arial" font-size="10" fill="white" font-weight="bold">Zain Farooq</text>
    <text x="175" y="45" text-anchor="middle" font-family="Arial" font-size="8" fill="#bdc3c7">ID: FA21-BIT-059</text>
    
    <!-- Member 3 -->
    <rect x="240" y="0" width="110" height="60" rx="8" fill="rgba(255,255,255,0.1)" stroke="white" stroke-width="1"/>
    <text x="295" y="25" text-anchor="middle" font-family="Arial" font-size="10" fill="white" font-weight="bold">Abdul Qudoos</text>
    <text x="295" y="45" text-anchor="middle" font-family="Arial" font-size="8" fill="#bdc3c7">ID: FA21-BIT-077</text>
    
    <!-- Supervisor -->
    <rect x="60" y="70" width="240" height="50" rx="8" fill="rgba(255,255,255,0.15)" stroke="white" stroke-width="2"/>
    <text x="180" y="90" text-anchor="middle" font-family="Arial" font-size="11" fill="white" font-weight="bold">Project Supervisor</text>
    <text x="180" y="105" text-anchor="middle" font-family="Arial" font-size="10" fill="#ecf0f1">Zain ul Abadeen</text>
    <text x="180" y="118" text-anchor="middle" font-family="Arial" font-size="8" fill="#bdc3c7">Lecturer</text>
  </g>
  
  <!-- FIFTH PART: DEPARTMENT -->
  <rect x="0" y="1140" width="426" height="140" fill="#2c3e50"/>
  <text x="213" y="1175" text-anchor="middle" font-family="Arial, sans-serif" 
        font-size="14" font-weight="bold" fill="white">
    Department of Computer Science and
  </text>
  <text x="213" y="1195" text-anchor="middle" font-family="Arial, sans-serif" 
        font-size="14" font-weight="bold" fill="white">
    Information Technology
  </text>
  <text x="213" y="1220" text-anchor="middle" font-family="Arial, sans-serif" 
        font-size="16" font-weight="bold" fill="#3498db">
    (MUST)
  </text>
  <text x="213" y="1245" text-anchor="middle" font-family="Arial, sans-serif" 
        font-size="10" fill="#bdc3c7">
    Final Year Project - Academic Year 2024-25
  </text>
  <text x="213" y="1265" text-anchor="middle" font-family="Arial, sans-serif" 
        font-size="8" fill="#95a5a6">
    Mirpur University of Science &amp; Technology
  </text>
</svg>
